<?xml version="1.0" encoding="us-ascii" standalone="no"?><svg xmlns="http://www.w3.org/2000/svg" xmlns:xlink="http://www.w3.org/1999/xlink" contentStyleType="text/css" height="934px" preserveAspectRatio="none" style="width:2460px;height:934px;background:#FFFFFF;" version="1.1" viewBox="0 0 2460 934" width="2460px" zoomAndPan="magnify"><defs/><g><!--class Main--><g id="elem_Main"><rect codeLine="3" fill="#F1F1F1" height="126.2031" id="Main" rx="2.5" ry="2.5" style="stroke:#181818;stroke-width:0.5;" width="274" x="1306" y="7"/><ellipse cx="1423.75" cy="23" fill="#ADD1B2" rx="11" ry="11" style="stroke:#181818;stroke-width:1.0;"/><path d="M1425.75,19.5 Q1425.9531,19 1426.1875,18.75 Q1426.4219,18.5 1426.6875,18.5 Q1427.1563,18.5 1427.4531,18.7813 Q1427.75,19.0625 1427.75,19.7188 L1427.75,21.2813 Q1427.75,21.9375 1427.4688,22.2188 Q1427.1875,22.5 1426.75,22.5 Q1426.3594,22.5 1426.1094,22.3281 Q1425.8594,22.1563 1425.75,21.7031 Q1425.7031,21.3906 1425.5313,21.2188 Q1425.2188,20.8906 1424.6563,20.7031 Q1424.0938,20.5 1423.5313,20.5 Q1422.8281,20.5 1422.2344,20.7813 Q1421.6563,21.0625 1421.2031,21.6875 Q1420.75,22.3125 1420.75,23.1719 L1420.75,24.0938 Q1420.75,25.125 1421.5938,25.8125 Q1422.4375,26.5 1423.9375,26.5 Q1424.8281,26.5 1425.4531,26.2969 Q1425.8125,26.1875 1426.2188,25.8281 Q1426.4844,25.625 1426.625,25.5625 Q1426.7656,25.5 1426.9375,25.5 Q1427.2656,25.5 1427.5,25.7656 Q1427.75,26.0156 1427.75,26.375 Q1427.75,26.7188 1427.4063,27.125 Q1426.9063,27.7188 1426.1094,28.0469 Q1425.0625,28.5 1423.7813,28.5 Q1422.2813,28.5 1421.0781,27.9063 Q1420.1094,27.4375 1419.4219,26.4219 Q1418.75,25.4063 1418.75,24.2031 L1418.75,23.1094 Q1418.75,21.8594 1419.3438,20.7656 Q1419.9531,19.6719 1421,19.0938 Q1422.0625,18.5 1423.25,18.5 Q1423.9688,18.5 1424.5938,18.75 Q1425.2188,19 1425.75,19.5 Z " fill="#000000"/><text fill="#000000" font-family="sans-serif" font-size="14" lengthAdjust="spacing" textLength="30" x="1444.25" y="27.8535">Main</text><line style="stroke:#181818;stroke-width:0.5;" x1="1307" x2="1579" y1="39" y2="39"/><text fill="#000000" font-family="sans-serif" font-size="14" lengthAdjust="spacing" textLength="262" x="1312" y="55.6738">-CommandProcessor commandProcessor</text><text fill="#000000" font-family="sans-serif" font-size="14" lengthAdjust="spacing" textLength="135" x="1312" y="71.3145">-exitCommand: String</text><text fill="#000000" font-family="sans-serif" font-size="14" lengthAdjust="spacing" textLength="173" x="1312" y="86.9551">-inputHandler: InputHandler</text><text fill="#000000" font-family="sans-serif" font-size="14" lengthAdjust="spacing" textLength="194" x="1312" y="102.5957">-outputHandler: OutputHandler</text><line style="stroke:#181818;stroke-width:0.5;" x1="1307" x2="1579" y1="109.5625" y2="109.5625"/><text fill="#000000" font-family="sans-serif" font-size="14" lengthAdjust="spacing" textLength="80" x="1312" y="126.2363">+start(): void</text></g><!--class CommandProcessor--><g id="elem_CommandProcessor"><rect codeLine="11" fill="#F1F1F1" height="79.2813" id="CommandProcessor" rx="2.5" ry="2.5" style="stroke:#181818;stroke-width:0.5;" width="242" x="1089" y="194"/><ellipse cx="1141.75" cy="210" fill="#ADD1B2" rx="11" ry="11" style="stroke:#181818;stroke-width:1.0;"/><path d="M1143.75,206.5 Q1143.9531,206 1144.1875,205.75 Q1144.4219,205.5 1144.6875,205.5 Q1145.1563,205.5 1145.4531,205.7813 Q1145.75,206.0625 1145.75,206.7188 L1145.75,208.2813 Q1145.75,208.9375 1145.4688,209.2188 Q1145.1875,209.5 1144.75,209.5 Q1144.3594,209.5 1144.1094,209.3281 Q1143.8594,209.1563 1143.75,208.7031 Q1143.7031,208.3906 1143.5313,208.2188 Q1143.2188,207.8906 1142.6563,207.7031 Q1142.0938,207.5 1141.5313,207.5 Q1140.8281,207.5 1140.2344,207.7813 Q1139.6563,208.0625 1139.2031,208.6875 Q1138.75,209.3125 1138.75,210.1719 L1138.75,211.0938 Q1138.75,212.125 1139.5938,212.8125 Q1140.4375,213.5 1141.9375,213.5 Q1142.8281,213.5 1143.4531,213.2969 Q1143.8125,213.1875 1144.2188,212.8281 Q1144.4844,212.625 1144.625,212.5625 Q1144.7656,212.5 1144.9375,212.5 Q1145.2656,212.5 1145.5,212.7656 Q1145.75,213.0156 1145.75,213.375 Q1145.75,213.7188 1145.4063,214.125 Q1144.9063,214.7188 1144.1094,215.0469 Q1143.0625,215.5 1141.7813,215.5 Q1140.2813,215.5 1139.0781,214.9063 Q1138.1094,214.4375 1137.4219,213.4219 Q1136.75,212.4063 1136.75,211.2031 L1136.75,210.1094 Q1136.75,208.8594 1137.3438,207.7656 Q1137.9531,206.6719 1139,206.0938 Q1140.0625,205.5 1141.25,205.5 Q1141.9688,205.5 1142.5938,205.75 Q1143.2188,206 1143.75,206.5 Z " fill="#000000"/><text fill="#000000" font-family="sans-serif" font-size="14" lengthAdjust="spacing" textLength="128" x="1162.25" y="214.8535">CommandProcessor</text><line style="stroke:#181818;stroke-width:0.5;" x1="1090" x2="1330" y1="226" y2="226"/><text fill="#000000" font-family="sans-serif" font-size="14" lengthAdjust="spacing" textLength="230" x="1095" y="242.6738">-CommandFactory commandFactory</text><line style="stroke:#181818;stroke-width:0.5;" x1="1090" x2="1330" y1="249.6406" y2="249.6406"/><text fill="#000000" font-family="sans-serif" font-size="14" lengthAdjust="spacing" textLength="189" x="1095" y="266.3145">+process(input: String): String</text></g><!--class Command--><g id="elem_Command"><rect codeLine="16" fill="#F1F1F1" height="63.6406" id="Command" rx="2.5" ry="2.5" style="stroke:#181818;stroke-width:0.5;" width="124" x="1121" y="474"/><ellipse cx="1148.6" cy="490" fill="#B4A7E5" rx="11" ry="11" style="stroke:#181818;stroke-width:1.0;"/><path d="M1149.6,487 L1149.6,493 L1151.6,493 L1152.0844,493 L1152.6,493.625 L1152.6,494 L1152.6,494.375 L1152.0844,495 L1151.6,495 L1145.6,495 L1145.1156,495 L1144.6,494.375 L1144.6,494 L1144.6,493.625 L1145.1156,493 L1145.6,493 L1147.6,493 L1147.6,487 L1145.6,487 L1145.1156,487 L1144.6,486.375 L1144.6,486 L1144.6,485.625 L1145.1156,485 L1145.6,485 L1151.6,485 L1152.0844,485 L1152.6,485.625 L1152.6,486 L1152.6,486.375 L1152.0844,487 L1151.6,487 L1149.6,487 Z " fill="#000000"/><text fill="#000000" font-family="sans-serif" font-size="14" font-style="italic" lengthAdjust="spacing" textLength="64" x="1165.4" y="494.8535">Command</text><line style="stroke:#181818;stroke-width:0.5;" x1="1122" x2="1244" y1="506" y2="506"/><line style="stroke:#181818;stroke-width:0.5;" x1="1122" x2="1244" y1="514" y2="514"/><text fill="#000000" font-family="sans-serif" font-size="14" lengthAdjust="spacing" textLength="112" x="1127" y="530.6738">+execute(): String</text></g><!--class ArgumentCommand--><g id="elem_ArgumentCommand"><rect codeLine="20" fill="#F1F1F1" height="63.6406" id="ArgumentCommand" rx="2.5" ry="2.5" style="stroke:#181818;stroke-width:0.5;" width="306" x="7" y="622.5"/><ellipse cx="93.25" cy="638.5" fill="#B4A7E5" rx="11" ry="11" style="stroke:#181818;stroke-width:1.0;"/><path d="M94.25,635.5 L94.25,641.5 L96.25,641.5 L96.7344,641.5 L97.25,642.125 L97.25,642.5 L97.25,642.875 L96.7344,643.5 L96.25,643.5 L90.25,643.5 L89.7656,643.5 L89.25,642.875 L89.25,642.5 L89.25,642.125 L89.7656,641.5 L90.25,641.5 L92.25,641.5 L92.25,635.5 L90.25,635.5 L89.7656,635.5 L89.25,634.875 L89.25,634.5 L89.25,634.125 L89.7656,633.5 L90.25,633.5 L96.25,633.5 L96.7344,633.5 L97.25,634.125 L97.25,634.5 L97.25,634.875 L96.7344,635.5 L96.25,635.5 L94.25,635.5 Z " fill="#000000"/><text fill="#000000" font-family="sans-serif" font-size="14" font-style="italic" lengthAdjust="spacing" textLength="125" x="113.75" y="643.3535">ArgumentCommand</text><line style="stroke:#181818;stroke-width:0.5;" x1="8" x2="312" y1="654.5" y2="654.5"/><line style="stroke:#181818;stroke-width:0.5;" x1="8" x2="312" y1="662.5" y2="662.5"/><text fill="#000000" font-family="sans-serif" font-size="14" lengthAdjust="spacing" textLength="294" x="13" y="679.1738">+withArguments(arguments: String): Command</text></g><!--class EchoCommand--><g id="elem_EchoCommand"><rect codeLine="24" fill="#F1F1F1" height="94.9219" id="EchoCommand" rx="2.5" ry="2.5" style="stroke:#181818;stroke-width:0.5;" width="306" x="348" y="607"/><ellipse cx="448.75" cy="623" fill="#ADD1B2" rx="11" ry="11" style="stroke:#181818;stroke-width:1.0;"/><path d="M450.75,619.5 Q450.9531,619 451.1875,618.75 Q451.4219,618.5 451.6875,618.5 Q452.1563,618.5 452.4531,618.7813 Q452.75,619.0625 452.75,619.7188 L452.75,621.2813 Q452.75,621.9375 452.4688,622.2188 Q452.1875,622.5 451.75,622.5 Q451.3594,622.5 451.1094,622.3281 Q450.8594,622.1563 450.75,621.7031 Q450.7031,621.3906 450.5313,621.2188 Q450.2188,620.8906 449.6563,620.7031 Q449.0938,620.5 448.5313,620.5 Q447.8281,620.5 447.2344,620.7813 Q446.6563,621.0625 446.2031,621.6875 Q445.75,622.3125 445.75,623.1719 L445.75,624.0938 Q445.75,625.125 446.5938,625.8125 Q447.4375,626.5 448.9375,626.5 Q449.8281,626.5 450.4531,626.2969 Q450.8125,626.1875 451.2188,625.8281 Q451.4844,625.625 451.625,625.5625 Q451.7656,625.5 451.9375,625.5 Q452.2656,625.5 452.5,625.7656 Q452.75,626.0156 452.75,626.375 Q452.75,626.7188 452.4063,627.125 Q451.9063,627.7188 451.1094,628.0469 Q450.0625,628.5 448.7813,628.5 Q447.2813,628.5 446.0781,627.9063 Q445.1094,627.4375 444.4219,626.4219 Q443.75,625.4063 443.75,624.2031 L443.75,623.1094 Q443.75,621.8594 444.3438,620.7656 Q444.9531,619.6719 446,619.0938 Q447.0625,618.5 448.25,618.5 Q448.9688,618.5 449.5938,618.75 Q450.2188,619 450.75,619.5 Z " fill="#000000"/><text fill="#000000" font-family="sans-serif" font-size="14" lengthAdjust="spacing" textLength="96" x="469.25" y="627.8535">EchoCommand</text><line style="stroke:#181818;stroke-width:0.5;" x1="349" x2="653" y1="639" y2="639"/><text fill="#000000" font-family="sans-serif" font-size="14" lengthAdjust="spacing" textLength="107" x="354" y="655.6738">-message: String</text><line style="stroke:#181818;stroke-width:0.5;" x1="349" x2="653" y1="662.6406" y2="662.6406"/><text fill="#000000" font-family="sans-serif" font-size="14" lengthAdjust="spacing" textLength="294" x="354" y="679.3145">+withArguments(arguments: String): Command</text><text fill="#000000" font-family="sans-serif" font-size="14" lengthAdjust="spacing" textLength="112" x="354" y="694.9551">+execute(): String</text></g><!--class ExitCommand--><g id="elem_ExitCommand"><rect codeLine="30" fill="#F1F1F1" height="79.2813" id="ExitCommand" rx="2.5" ry="2.5" style="stroke:#181818;stroke-width:0.5;" width="306" x="689" y="615"/><ellipse cx="794.75" cy="631" fill="#ADD1B2" rx="11" ry="11" style="stroke:#181818;stroke-width:1.0;"/><path d="M796.75,627.5 Q796.9531,627 797.1875,626.75 Q797.4219,626.5 797.6875,626.5 Q798.1563,626.5 798.4531,626.7813 Q798.75,627.0625 798.75,627.7188 L798.75,629.2813 Q798.75,629.9375 798.4688,630.2188 Q798.1875,630.5 797.75,630.5 Q797.3594,630.5 797.1094,630.3281 Q796.8594,630.1563 796.75,629.7031 Q796.7031,629.3906 796.5313,629.2188 Q796.2188,628.8906 795.6563,628.7031 Q795.0938,628.5 794.5313,628.5 Q793.8281,628.5 793.2344,628.7813 Q792.6563,629.0625 792.2031,629.6875 Q791.75,630.3125 791.75,631.1719 L791.75,632.0938 Q791.75,633.125 792.5938,633.8125 Q793.4375,634.5 794.9375,634.5 Q795.8281,634.5 796.4531,634.2969 Q796.8125,634.1875 797.2188,633.8281 Q797.4844,633.625 797.625,633.5625 Q797.7656,633.5 797.9375,633.5 Q798.2656,633.5 798.5,633.7656 Q798.75,634.0156 798.75,634.375 Q798.75,634.7188 798.4063,635.125 Q797.9063,635.7188 797.1094,636.0469 Q796.0625,636.5 794.7813,636.5 Q793.2813,636.5 792.0781,635.9063 Q791.1094,635.4375 790.4219,634.4219 Q789.75,633.4063 789.75,632.2031 L789.75,631.1094 Q789.75,629.8594 790.3438,628.7656 Q790.9531,627.6719 792,627.0938 Q793.0625,626.5 794.25,626.5 Q794.9688,626.5 795.5938,626.75 Q796.2188,627 796.75,627.5 Z " fill="#000000"/><text fill="#000000" font-family="sans-serif" font-size="14" lengthAdjust="spacing" textLength="86" x="815.25" y="635.8535">ExitCommand</text><line style="stroke:#181818;stroke-width:0.5;" x1="690" x2="994" y1="647" y2="647"/><line style="stroke:#181818;stroke-width:0.5;" x1="690" x2="994" y1="655" y2="655"/><text fill="#000000" font-family="sans-serif" font-size="14" lengthAdjust="spacing" textLength="294" x="695" y="671.6738">+withArguments(arguments: String): Command</text><text fill="#000000" font-family="sans-serif" font-size="14" lengthAdjust="spacing" textLength="112" x="695" y="687.3145">+execute(): String</text></g><!--class ExternalCommand--><g id="elem_ExternalCommand"><rect codeLine="35" fill="#F1F1F1" height="94.9219" id="ExternalCommand" rx="2.5" ry="2.5" style="stroke:#181818;stroke-width:0.5;" width="306" x="1030" y="607"/><ellipse cx="1121.25" cy="623" fill="#ADD1B2" rx="11" ry="11" style="stroke:#181818;stroke-width:1.0;"/><path d="M1123.25,619.5 Q1123.4531,619 1123.6875,618.75 Q1123.9219,618.5 1124.1875,618.5 Q1124.6563,618.5 1124.9531,618.7813 Q1125.25,619.0625 1125.25,619.7188 L1125.25,621.2813 Q1125.25,621.9375 1124.9688,622.2188 Q1124.6875,622.5 1124.25,622.5 Q1123.8594,622.5 1123.6094,622.3281 Q1123.3594,622.1563 1123.25,621.7031 Q1123.2031,621.3906 1123.0313,621.2188 Q1122.7188,620.8906 1122.1563,620.7031 Q1121.5938,620.5 1121.0313,620.5 Q1120.3281,620.5 1119.7344,620.7813 Q1119.1563,621.0625 1118.7031,621.6875 Q1118.25,622.3125 1118.25,623.1719 L1118.25,624.0938 Q1118.25,625.125 1119.0938,625.8125 Q1119.9375,626.5 1121.4375,626.5 Q1122.3281,626.5 1122.9531,626.2969 Q1123.3125,626.1875 1123.7188,625.8281 Q1123.9844,625.625 1124.125,625.5625 Q1124.2656,625.5 1124.4375,625.5 Q1124.7656,625.5 1125,625.7656 Q1125.25,626.0156 1125.25,626.375 Q1125.25,626.7188 1124.9063,627.125 Q1124.4063,627.7188 1123.6094,628.0469 Q1122.5625,628.5 1121.2813,628.5 Q1119.7813,628.5 1118.5781,627.9063 Q1117.6094,627.4375 1116.9219,626.4219 Q1116.25,625.4063 1116.25,624.2031 L1116.25,623.1094 Q1116.25,621.8594 1116.8438,620.7656 Q1117.4531,619.6719 1118.5,619.0938 Q1119.5625,618.5 1120.75,618.5 Q1121.4688,618.5 1122.0938,618.75 Q1122.7188,619 1123.25,619.5 Z " fill="#000000"/><text fill="#000000" font-family="sans-serif" font-size="14" lengthAdjust="spacing" textLength="115" x="1141.75" y="627.8535">ExternalCommand</text><line style="stroke:#181818;stroke-width:0.5;" x1="1031" x2="1335" y1="639" y2="639"/><line style="stroke:#181818;stroke-width:0.5;" x1="1031" x2="1335" y1="647" y2="647"/><text fill="#000000" font-family="sans-serif" font-size="14" lengthAdjust="spacing" textLength="192" x="1036" y="663.6738">-buildCommand(): List&lt;String&gt;</text><text fill="#000000" font-family="sans-serif" font-size="14" lengthAdjust="spacing" textLength="294" x="1036" y="679.3145">+withArguments(arguments: String): Command</text><text fill="#000000" font-family="sans-serif" font-size="14" lengthAdjust="spacing" textLength="112" x="1036" y="694.9551">+execute(): String</text></g><!--class TypeCommand--><g id="elem_TypeCommand"><rect codeLine="41" fill="#F1F1F1" height="94.9219" id="TypeCommand" rx="2.5" ry="2.5" style="stroke:#181818;stroke-width:0.5;" width="399" x="1371.5" y="607"/><ellipse cx="1518.75" cy="623" fill="#ADD1B2" rx="11" ry="11" style="stroke:#181818;stroke-width:1.0;"/><path d="M1520.75,619.5 Q1520.9531,619 1521.1875,618.75 Q1521.4219,618.5 1521.6875,618.5 Q1522.1563,618.5 1522.4531,618.7813 Q1522.75,619.0625 1522.75,619.7188 L1522.75,621.2813 Q1522.75,621.9375 1522.4688,622.2188 Q1522.1875,622.5 1521.75,622.5 Q1521.3594,622.5 1521.1094,622.3281 Q1520.8594,622.1563 1520.75,621.7031 Q1520.7031,621.3906 1520.5313,621.2188 Q1520.2188,620.8906 1519.6563,620.7031 Q1519.0938,620.5 1518.5313,620.5 Q1517.8281,620.5 1517.2344,620.7813 Q1516.6563,621.0625 1516.2031,621.6875 Q1515.75,622.3125 1515.75,623.1719 L1515.75,624.0938 Q1515.75,625.125 1516.5938,625.8125 Q1517.4375,626.5 1518.9375,626.5 Q1519.8281,626.5 1520.4531,626.2969 Q1520.8125,626.1875 1521.2188,625.8281 Q1521.4844,625.625 1521.625,625.5625 Q1521.7656,625.5 1521.9375,625.5 Q1522.2656,625.5 1522.5,625.7656 Q1522.75,626.0156 1522.75,626.375 Q1522.75,626.7188 1522.4063,627.125 Q1521.9063,627.7188 1521.1094,628.0469 Q1520.0625,628.5 1518.7813,628.5 Q1517.2813,628.5 1516.0781,627.9063 Q1515.1094,627.4375 1514.4219,626.4219 Q1513.75,625.4063 1513.75,624.2031 L1513.75,623.1094 Q1513.75,621.8594 1514.3438,620.7656 Q1514.9531,619.6719 1516,619.0938 Q1517.0625,618.5 1518.25,618.5 Q1518.9688,618.5 1519.5938,618.75 Q1520.2188,619 1520.75,619.5 Z " fill="#000000"/><text fill="#000000" font-family="sans-serif" font-size="14" lengthAdjust="spacing" textLength="96" x="1539.25" y="627.8535">TypeCommand</text><line style="stroke:#181818;stroke-width:0.5;" x1="1372.5" x2="1769.5" y1="639" y2="639"/><line style="stroke:#181818;stroke-width:0.5;" x1="1372.5" x2="1769.5" y1="647" y2="647"/><text fill="#000000" font-family="sans-serif" font-size="14" lengthAdjust="spacing" textLength="387" x="1377.5" y="663.6738">+TypeCommand(commandRegistry: Map&lt;String, Command&gt;)</text><text fill="#000000" font-family="sans-serif" font-size="14" lengthAdjust="spacing" textLength="294" x="1377.5" y="679.3145">+withArguments(arguments: String): Command</text><text fill="#000000" font-family="sans-serif" font-size="14" lengthAdjust="spacing" textLength="112" x="1377.5" y="694.9551">+execute(): String</text></g><!--class CdCommand--><g id="elem_CdCommand"><rect codeLine="47" fill="#F1F1F1" height="110.5625" id="CdCommand" rx="2.5" ry="2.5" style="stroke:#181818;stroke-width:0.5;" width="306" x="1806" y="599"/><ellipse cx="1913.75" cy="615" fill="#ADD1B2" rx="11" ry="11" style="stroke:#181818;stroke-width:1.0;"/><path d="M1915.75,611.5 Q1915.9531,611 1916.1875,610.75 Q1916.4219,610.5 1916.6875,610.5 Q1917.1563,610.5 1917.4531,610.7813 Q1917.75,611.0625 1917.75,611.7188 L1917.75,613.2813 Q1917.75,613.9375 1917.4688,614.2188 Q1917.1875,614.5 1916.75,614.5 Q1916.3594,614.5 1916.1094,614.3281 Q1915.8594,614.1563 1915.75,613.7031 Q1915.7031,613.3906 1915.5313,613.2188 Q1915.2188,612.8906 1914.6563,612.7031 Q1914.0938,612.5 1913.5313,612.5 Q1912.8281,612.5 1912.2344,612.7813 Q1911.6563,613.0625 1911.2031,613.6875 Q1910.75,614.3125 1910.75,615.1719 L1910.75,616.0938 Q1910.75,617.125 1911.5938,617.8125 Q1912.4375,618.5 1913.9375,618.5 Q1914.8281,618.5 1915.4531,618.2969 Q1915.8125,618.1875 1916.2188,617.8281 Q1916.4844,617.625 1916.625,617.5625 Q1916.7656,617.5 1916.9375,617.5 Q1917.2656,617.5 1917.5,617.7656 Q1917.75,618.0156 1917.75,618.375 Q1917.75,618.7188 1917.4063,619.125 Q1916.9063,619.7188 1916.1094,620.0469 Q1915.0625,620.5 1913.7813,620.5 Q1912.2813,620.5 1911.0781,619.9063 Q1910.1094,619.4375 1909.4219,618.4219 Q1908.75,617.4063 1908.75,616.2031 L1908.75,615.1094 Q1908.75,613.8594 1909.3438,612.7656 Q1909.9531,611.6719 1911,611.0938 Q1912.0625,610.5 1913.25,610.5 Q1913.9688,610.5 1914.5938,610.75 Q1915.2188,611 1915.75,611.5 Z " fill="#000000"/><text fill="#000000" font-family="sans-serif" font-size="14" lengthAdjust="spacing" textLength="82" x="1934.25" y="619.8535">CdCommand</text><line style="stroke:#181818;stroke-width:0.5;" x1="1807" x2="2111" y1="631" y2="631"/><line style="stroke:#181818;stroke-width:0.5;" x1="1807" x2="2111" y1="639" y2="639"/><text fill="#000000" font-family="sans-serif" font-size="14" lengthAdjust="spacing" textLength="100" x="1812" y="655.6738">+CdCommand()</text><text fill="#000000" font-family="sans-serif" font-size="14" lengthAdjust="spacing" textLength="294" x="1812" y="671.3145">+withArguments(arguments: String): Command</text><text fill="#000000" font-family="sans-serif" font-size="14" lengthAdjust="spacing" textLength="112" x="1812" y="686.9551">+execute(): String</text><text fill="#000000" font-family="sans-serif" font-size="14" lengthAdjust="spacing" textLength="127" x="1812" y="702.5957">-resolvePath(): Path</text></g><!--class PwdCommand--><g id="elem_PwdCommand"><rect codeLine="54" fill="#F1F1F1" height="94.9219" id="PwdCommand" rx="2.5" ry="2.5" style="stroke:#181818;stroke-width:0.5;" width="306" x="2147" y="607"/><ellipse cx="2250.75" cy="623" fill="#ADD1B2" rx="11" ry="11" style="stroke:#181818;stroke-width:1.0;"/><path d="M2252.75,619.5 Q2252.9531,619 2253.1875,618.75 Q2253.4219,618.5 2253.6875,618.5 Q2254.1563,618.5 2254.4531,618.7813 Q2254.75,619.0625 2254.75,619.7188 L2254.75,621.2813 Q2254.75,621.9375 2254.4688,622.2188 Q2254.1875,622.5 2253.75,622.5 Q2253.3594,622.5 2253.1094,622.3281 Q2252.8594,622.1563 2252.75,621.7031 Q2252.7031,621.3906 2252.5313,621.2188 Q2252.2188,620.8906 2251.6563,620.7031 Q2251.0938,620.5 2250.5313,620.5 Q2249.8281,620.5 2249.2344,620.7813 Q2248.6563,621.0625 2248.2031,621.6875 Q2247.75,622.3125 2247.75,623.1719 L2247.75,624.0938 Q2247.75,625.125 2248.5938,625.8125 Q2249.4375,626.5 2250.9375,626.5 Q2251.8281,626.5 2252.4531,626.2969 Q2252.8125,626.1875 2253.2188,625.8281 Q2253.4844,625.625 2253.625,625.5625 Q2253.7656,625.5 2253.9375,625.5 Q2254.2656,625.5 2254.5,625.7656 Q2254.75,626.0156 2254.75,626.375 Q2254.75,626.7188 2254.4063,627.125 Q2253.9063,627.7188 2253.1094,628.0469 Q2252.0625,628.5 2250.7813,628.5 Q2249.2813,628.5 2248.0781,627.9063 Q2247.1094,627.4375 2246.4219,626.4219 Q2245.75,625.4063 2245.75,624.2031 L2245.75,623.1094 Q2245.75,621.8594 2246.3438,620.7656 Q2246.9531,619.6719 2248,619.0938 Q2249.0625,618.5 2250.25,618.5 Q2250.9688,618.5 2251.5938,618.75 Q2252.2188,619 2252.75,619.5 Z " fill="#000000"/><text fill="#000000" font-family="sans-serif" font-size="14" lengthAdjust="spacing" textLength="90" x="2271.25" y="627.8535">PwdCommand</text><line style="stroke:#181818;stroke-width:0.5;" x1="2148" x2="2452" y1="639" y2="639"/><line style="stroke:#181818;stroke-width:0.5;" x1="2148" x2="2452" y1="647" y2="647"/><text fill="#000000" font-family="sans-serif" font-size="14" lengthAdjust="spacing" textLength="108" x="2153" y="663.6738">+PwdCommand()</text><text fill="#000000" font-family="sans-serif" font-size="14" lengthAdjust="spacing" textLength="294" x="2153" y="679.3145">+withArguments(arguments: String): Command</text><text fill="#000000" font-family="sans-serif" font-size="14" lengthAdjust="spacing" textLength="112" x="2153" y="694.9551">+execute(): String</text></g><!--class CommandFactory--><g id="elem_CommandFactory"><rect codeLine="60" fill="#F1F1F1" height="79.2813" id="CommandFactory" rx="2.5" ry="2.5" style="stroke:#181818;stroke-width:0.5;" width="286" x="1040" y="334"/><ellipse cx="1122.75" cy="350" fill="#ADD1B2" rx="11" ry="11" style="stroke:#181818;stroke-width:1.0;"/><path d="M1124.75,346.5 Q1124.9531,346 1125.1875,345.75 Q1125.4219,345.5 1125.6875,345.5 Q1126.1563,345.5 1126.4531,345.7813 Q1126.75,346.0625 1126.75,346.7188 L1126.75,348.2813 Q1126.75,348.9375 1126.4688,349.2188 Q1126.1875,349.5 1125.75,349.5 Q1125.3594,349.5 1125.1094,349.3281 Q1124.8594,349.1563 1124.75,348.7031 Q1124.7031,348.3906 1124.5313,348.2188 Q1124.2188,347.8906 1123.6563,347.7031 Q1123.0938,347.5 1122.5313,347.5 Q1121.8281,347.5 1121.2344,347.7813 Q1120.6563,348.0625 1120.2031,348.6875 Q1119.75,349.3125 1119.75,350.1719 L1119.75,351.0938 Q1119.75,352.125 1120.5938,352.8125 Q1121.4375,353.5 1122.9375,353.5 Q1123.8281,353.5 1124.4531,353.2969 Q1124.8125,353.1875 1125.2188,352.8281 Q1125.4844,352.625 1125.625,352.5625 Q1125.7656,352.5 1125.9375,352.5 Q1126.2656,352.5 1126.5,352.7656 Q1126.75,353.0156 1126.75,353.375 Q1126.75,353.7188 1126.4063,354.125 Q1125.9063,354.7188 1125.1094,355.0469 Q1124.0625,355.5 1122.7813,355.5 Q1121.2813,355.5 1120.0781,354.9063 Q1119.1094,354.4375 1118.4219,353.4219 Q1117.75,352.4063 1117.75,351.2031 L1117.75,350.1094 Q1117.75,348.8594 1118.3438,347.7656 Q1118.9531,346.6719 1120,346.0938 Q1121.0625,345.5 1122.25,345.5 Q1122.9688,345.5 1123.5938,345.75 Q1124.2188,346 1124.75,346.5 Z " fill="#000000"/><text fill="#000000" font-family="sans-serif" font-size="14" lengthAdjust="spacing" textLength="112" x="1143.25" y="354.8535">CommandFactory</text><line style="stroke:#181818;stroke-width:0.5;" x1="1041" x2="1325" y1="366" y2="366"/><text fill="#000000" font-family="sans-serif" font-size="14" lengthAdjust="spacing" textLength="274" x="1046" y="382.6738">-Map&lt;String, Command&gt; commandRegistry</text><line style="stroke:#181818;stroke-width:0.5;" x1="1041" x2="1325" y1="389.6406" y2="389.6406"/><text fill="#000000" font-family="sans-serif" font-size="14" lengthAdjust="spacing" textLength="270" x="1046" y="406.3145">+createCommand(input: String): Command</text></g><!--class InputHandler--><g id="elem_InputHandler"><rect codeLine="65" fill="#F1F1F1" height="63.6406" id="InputHandler" rx="2.5" ry="2.5" style="stroke:#181818;stroke-width:0.5;" width="135" x="1375.5" y="201.5"/><ellipse cx="1399.95" cy="217.5" fill="#B4A7E5" rx="11" ry="11" style="stroke:#181818;stroke-width:1.0;"/><path d="M1400.95,214.5 L1400.95,220.5 L1402.95,220.5 L1403.4344,220.5 L1403.95,221.125 L1403.95,221.5 L1403.95,221.875 L1403.4344,222.5 L1402.95,222.5 L1396.95,222.5 L1396.4656,222.5 L1395.95,221.875 L1395.95,221.5 L1395.95,221.125 L1396.4656,220.5 L1396.95,220.5 L1398.95,220.5 L1398.95,214.5 L1396.95,214.5 L1396.4656,214.5 L1395.95,213.875 L1395.95,213.5 L1395.95,213.125 L1396.4656,212.5 L1396.95,212.5 L1402.95,212.5 L1403.4344,212.5 L1403.95,213.125 L1403.95,213.5 L1403.95,213.875 L1403.4344,214.5 L1402.95,214.5 L1400.95,214.5 Z " fill="#000000"/><text fill="#000000" font-family="sans-serif" font-size="14" font-style="italic" lengthAdjust="spacing" textLength="82" x="1416.05" y="222.3535">InputHandler</text><line style="stroke:#181818;stroke-width:0.5;" x1="1376.5" x2="1509.5" y1="233.5" y2="233.5"/><line style="stroke:#181818;stroke-width:0.5;" x1="1376.5" x2="1509.5" y1="241.5" y2="241.5"/><text fill="#000000" font-family="sans-serif" font-size="14" lengthAdjust="spacing" textLength="123" x="1381.5" y="258.1738">+readInput(): String</text></g><!--class ConsoleInputHandler--><g id="elem_ConsoleInputHandler"><rect codeLine="69" fill="#F1F1F1" height="63.6406" id="ConsoleInputHandler" rx="2.5" ry="2.5" style="stroke:#181818;stroke-width:0.5;" width="164" x="1361" y="341.5"/><ellipse cx="1376" cy="357.5" fill="#ADD1B2" rx="11" ry="11" style="stroke:#181818;stroke-width:1.0;"/><path d="M1378,354 Q1378.2031,353.5 1378.4375,353.25 Q1378.6719,353 1378.9375,353 Q1379.4063,353 1379.7031,353.2813 Q1380,353.5625 1380,354.2188 L1380,355.7813 Q1380,356.4375 1379.7188,356.7188 Q1379.4375,357 1379,357 Q1378.6094,357 1378.3594,356.8281 Q1378.1094,356.6563 1378,356.2031 Q1377.9531,355.8906 1377.7813,355.7188 Q1377.4688,355.3906 1376.9063,355.2031 Q1376.3438,355 1375.7813,355 Q1375.0781,355 1374.4844,355.2813 Q1373.9063,355.5625 1373.4531,356.1875 Q1373,356.8125 1373,357.6719 L1373,358.5938 Q1373,359.625 1373.8438,360.3125 Q1374.6875,361 1376.1875,361 Q1377.0781,361 1377.7031,360.7969 Q1378.0625,360.6875 1378.4688,360.3281 Q1378.7344,360.125 1378.875,360.0625 Q1379.0156,360 1379.1875,360 Q1379.5156,360 1379.75,360.2656 Q1380,360.5156 1380,360.875 Q1380,361.2188 1379.6563,361.625 Q1379.1563,362.2188 1378.3594,362.5469 Q1377.3125,363 1376.0313,363 Q1374.5313,363 1373.3281,362.4063 Q1372.3594,361.9375 1371.6719,360.9219 Q1371,359.9063 1371,358.7031 L1371,357.6094 Q1371,356.3594 1371.5938,355.2656 Q1372.2031,354.1719 1373.25,353.5938 Q1374.3125,353 1375.5,353 Q1376.2188,353 1376.8438,353.25 Q1377.4688,353.5 1378,354 Z " fill="#000000"/><text fill="#000000" font-family="sans-serif" font-size="14" lengthAdjust="spacing" textLength="132" x="1390" y="362.3535">ConsoleInputHandler</text><line style="stroke:#181818;stroke-width:0.5;" x1="1362" x2="1524" y1="373.5" y2="373.5"/><line style="stroke:#181818;stroke-width:0.5;" x1="1362" x2="1524" y1="381.5" y2="381.5"/><text fill="#000000" font-family="sans-serif" font-size="14" lengthAdjust="spacing" textLength="123" x="1367" y="398.1738">+readInput(): String</text></g><!--class OutputHandler--><g id="elem_OutputHandler"><rect codeLine="75" fill="#F1F1F1" height="63.6406" id="OutputHandler" rx="2.5" ry="2.5" style="stroke:#181818;stroke-width:0.5;" width="220" x="1553" y="201.5"/><ellipse cx="1612.25" cy="217.5" fill="#B4A7E5" rx="11" ry="11" style="stroke:#181818;stroke-width:1.0;"/><path d="M1613.25,214.5 L1613.25,220.5 L1615.25,220.5 L1615.7344,220.5 L1616.25,221.125 L1616.25,221.5 L1616.25,221.875 L1615.7344,222.5 L1615.25,222.5 L1609.25,222.5 L1608.7656,222.5 L1608.25,221.875 L1608.25,221.5 L1608.25,221.125 L1608.7656,220.5 L1609.25,220.5 L1611.25,220.5 L1611.25,214.5 L1609.25,214.5 L1608.7656,214.5 L1608.25,213.875 L1608.25,213.5 L1608.25,213.125 L1608.7656,212.5 L1609.25,212.5 L1615.25,212.5 L1615.7344,212.5 L1616.25,213.125 L1616.25,213.5 L1616.25,213.875 L1615.7344,214.5 L1615.25,214.5 L1613.25,214.5 Z " fill="#000000"/><text fill="#000000" font-family="sans-serif" font-size="14" font-style="italic" lengthAdjust="spacing" textLength="93" x="1632.75" y="222.3535">OutputHandler</text><line style="stroke:#181818;stroke-width:0.5;" x1="1554" x2="1772" y1="233.5" y2="233.5"/><line style="stroke:#181818;stroke-width:0.5;" x1="1554" x2="1772" y1="241.5" y2="241.5"/><text fill="#000000" font-family="sans-serif" font-size="14" lengthAdjust="spacing" textLength="208" x="1559" y="258.1738">+printOutput(output: String): void</text></g><!--class ConsoleOutputHandler--><g id="elem_ConsoleOutputHandler"><rect codeLine="79" fill="#F1F1F1" height="63.6406" id="ConsoleOutputHandler" rx="2.5" ry="2.5" style="stroke:#181818;stroke-width:0.5;" width="220" x="1560" y="341.5"/><ellipse cx="1594.8" cy="357.5" fill="#ADD1B2" rx="11" ry="11" style="stroke:#181818;stroke-width:1.0;"/><path d="M1596.8,354 Q1597.0031,353.5 1597.2375,353.25 Q1597.4719,353 1597.7375,353 Q1598.2063,353 1598.5031,353.2813 Q1598.8,353.5625 1598.8,354.2188 L1598.8,355.7813 Q1598.8,356.4375 1598.5188,356.7188 Q1598.2375,357 1597.8,357 Q1597.4094,357 1597.1594,356.8281 Q1596.9094,356.6563 1596.8,356.2031 Q1596.7531,355.8906 1596.5813,355.7188 Q1596.2688,355.3906 1595.7063,355.2031 Q1595.1438,355 1594.5813,355 Q1593.8781,355 1593.2844,355.2813 Q1592.7063,355.5625 1592.2531,356.1875 Q1591.8,356.8125 1591.8,357.6719 L1591.8,358.5938 Q1591.8,359.625 1592.6438,360.3125 Q1593.4875,361 1594.9875,361 Q1595.8781,361 1596.5031,360.7969 Q1596.8625,360.6875 1597.2688,360.3281 Q1597.5344,360.125 1597.675,360.0625 Q1597.8156,360 1597.9875,360 Q1598.3156,360 1598.55,360.2656 Q1598.8,360.5156 1598.8,360.875 Q1598.8,361.2188 1598.4563,361.625 Q1597.9563,362.2188 1597.1594,362.5469 Q1596.1125,363 1594.8313,363 Q1593.3313,363 1592.1281,362.4063 Q1591.1594,361.9375 1590.4719,360.9219 Q1589.8,359.9063 1589.8,358.7031 L1589.8,357.6094 Q1589.8,356.3594 1590.3938,355.2656 Q1591.0031,354.1719 1592.05,353.5938 Q1593.1125,353 1594.3,353 Q1595.0188,353 1595.6438,353.25 Q1596.2688,353.5 1596.8,354 Z " fill="#000000"/><text fill="#000000" font-family="sans-serif" font-size="14" lengthAdjust="spacing" textLength="144" x="1613.2" y="362.3535">ConsoleOutputHandler</text><line style="stroke:#181818;stroke-width:0.5;" x1="1561" x2="1779" y1="373.5" y2="373.5"/><line style="stroke:#181818;stroke-width:0.5;" x1="1561" x2="1779" y1="381.5" y2="381.5"/><text fill="#000000" font-family="sans-serif" font-size="14" lengthAdjust="spacing" textLength="208" x="1566" y="398.1738">+printOutput(output: String): void</text></g><!--class CommandUtils--><g id="elem_CommandUtils"><rect codeLine="85" fill="#F1F1F1" height="79.2813" id="CommandUtils" rx="2.5" ry="2.5" style="stroke:#181818;stroke-width:0.5;" width="327" x="1174.5" y="817.5"/><ellipse cx="1288.75" cy="833.5" fill="#ADD1B2" rx="11" ry="11" style="stroke:#181818;stroke-width:1.0;"/><path d="M1290.75,830 Q1290.9531,829.5 1291.1875,829.25 Q1291.4219,829 1291.6875,829 Q1292.1563,829 1292.4531,829.2813 Q1292.75,829.5625 1292.75,830.2188 L1292.75,831.7813 Q1292.75,832.4375 1292.4688,832.7188 Q1292.1875,833 1291.75,833 Q1291.3594,833 1291.1094,832.8281 Q1290.8594,832.6563 1290.75,832.2031 Q1290.7031,831.8906 1290.5313,831.7188 Q1290.2188,831.3906 1289.6563,831.2031 Q1289.0938,831 1288.5313,831 Q1287.8281,831 1287.2344,831.2813 Q1286.6563,831.5625 1286.2031,832.1875 Q1285.75,832.8125 1285.75,833.6719 L1285.75,834.5938 Q1285.75,835.625 1286.5938,836.3125 Q1287.4375,837 1288.9375,837 Q1289.8281,837 1290.4531,836.7969 Q1290.8125,836.6875 1291.2188,836.3281 Q1291.4844,836.125 1291.625,836.0625 Q1291.7656,836 1291.9375,836 Q1292.2656,836 1292.5,836.2656 Q1292.75,836.5156 1292.75,836.875 Q1292.75,837.2188 1292.4063,837.625 Q1291.9063,838.2188 1291.1094,838.5469 Q1290.0625,839 1288.7813,839 Q1287.2813,839 1286.0781,838.4063 Q1285.1094,837.9375 1284.4219,836.9219 Q1283.75,835.9063 1283.75,834.7031 L1283.75,833.6094 Q1283.75,832.3594 1284.3438,831.2656 Q1284.9531,830.1719 1286,829.5938 Q1287.0625,829 1288.25,829 Q1288.9688,829 1289.5938,829.25 Q1290.2188,829.5 1290.75,830 Z " fill="#000000"/><text fill="#000000" font-family="sans-serif" font-size="14" lengthAdjust="spacing" textLength="90" x="1309.25" y="838.3535">CommandUtils</text><line style="stroke:#181818;stroke-width:0.5;" x1="1175.5" x2="1500.5" y1="849.5" y2="849.5"/><line style="stroke:#181818;stroke-width:0.5;" x1="1175.5" x2="1500.5" y1="857.5" y2="857.5"/><text fill="#000000" font-family="sans-serif" font-size="14" lengthAdjust="spacing" textLength="247" x="1180.5" y="874.1738">&#171;static&#187; + findCommandInPath(): String</text><text fill="#000000" font-family="sans-serif" font-size="14" lengthAdjust="spacing" textLength="315" x="1180.5" y="889.8145">&#171;static&#187; + getExecutableExtensions(): List&lt;String&gt;</text></g><!--class ShellContext--><g id="elem_ShellContext"><rect codeLine="89" fill="#F1F1F1" height="141.8438" id="ShellContext" rx="2.5" ry="2.5" style="stroke:#181818;stroke-width:0.5;" width="291" x="1983.5" y="786"/><ellipse cx="2085.25" cy="802" fill="#ADD1B2" rx="11" ry="11" style="stroke:#181818;stroke-width:1.0;"/><path d="M2087.25,798.5 Q2087.4531,798 2087.6875,797.75 Q2087.9219,797.5 2088.1875,797.5 Q2088.6563,797.5 2088.9531,797.7813 Q2089.25,798.0625 2089.25,798.7188 L2089.25,800.2813 Q2089.25,800.9375 2088.9688,801.2188 Q2088.6875,801.5 2088.25,801.5 Q2087.8594,801.5 2087.6094,801.3281 Q2087.3594,801.1563 2087.25,800.7031 Q2087.2031,800.3906 2087.0313,800.2188 Q2086.7188,799.8906 2086.1563,799.7031 Q2085.5938,799.5 2085.0313,799.5 Q2084.3281,799.5 2083.7344,799.7813 Q2083.1563,800.0625 2082.7031,800.6875 Q2082.25,801.3125 2082.25,802.1719 L2082.25,803.0938 Q2082.25,804.125 2083.0938,804.8125 Q2083.9375,805.5 2085.4375,805.5 Q2086.3281,805.5 2086.9531,805.2969 Q2087.3125,805.1875 2087.7188,804.8281 Q2087.9844,804.625 2088.125,804.5625 Q2088.2656,804.5 2088.4375,804.5 Q2088.7656,804.5 2089,804.7656 Q2089.25,805.0156 2089.25,805.375 Q2089.25,805.7188 2088.9063,806.125 Q2088.4063,806.7188 2087.6094,807.0469 Q2086.5625,807.5 2085.2813,807.5 Q2083.7813,807.5 2082.5781,806.9063 Q2081.6094,806.4375 2080.9219,805.4219 Q2080.25,804.4063 2080.25,803.2031 L2080.25,802.1094 Q2080.25,800.8594 2080.8438,799.7656 Q2081.4531,798.6719 2082.5,798.0938 Q2083.5625,797.5 2084.75,797.5 Q2085.4688,797.5 2086.0938,797.75 Q2086.7188,798 2087.25,798.5 Z " fill="#000000"/><text fill="#000000" font-family="sans-serif" font-size="14" lengthAdjust="spacing" textLength="79" x="2105.75" y="806.8535">ShellContext</text><line style="stroke:#181818;stroke-width:0.5;" x1="1984.5" x2="2273.5" y1="818" y2="818"/><text fill="#000000" font-family="sans-serif" font-size="14" lengthAdjust="spacing" textLength="178" x="1989.5" y="834.6738">-static ShellContext instance</text><line style="stroke:#181818;stroke-width:0.5;" x1="1984.5" x2="2273.5" y1="841.6406" y2="841.6406"/><text fill="#000000" font-family="sans-serif" font-size="14" lengthAdjust="spacing" textLength="94" x="1989.5" y="858.3145">-ShellContext()</text><text fill="#000000" font-family="sans-serif" font-size="14" lengthAdjust="spacing" textLength="211" x="1989.5" y="873.9551">+static ShellContext getInstance()</text><text fill="#000000" font-family="sans-serif" font-size="14" lengthAdjust="spacing" textLength="241" x="1989.5" y="889.5957">+void setCurrentDirectory(String data)</text><text fill="#000000" font-family="sans-serif" font-size="14" lengthAdjust="spacing" textLength="184" x="1989.5" y="905.2363">+String getCurrentDirectory()</text><text fill="#000000" font-family="sans-serif" font-size="14" lengthAdjust="spacing" textLength="279" x="1989.5" y="920.877">getInstance() returns the singleTon instance</text></g><!--reverse link InputHandler to ConsoleInputHandler--><g id="link_InputHandler_ConsoleInputHandler"><path codeLine="73" d="M1443,286.07 C1443,304.64 1443,325.01 1443,341.31 " fill="none" id="InputHandler-backto-ConsoleInputHandler" style="stroke:#181818;stroke-width:1.0;"/><polygon fill="none" points="1436,285.81,1443,265.81,1450,285.81,1436,285.81" style="stroke:#181818;stroke-width:1.0;"/></g><!--reverse link OutputHandler to ConsoleOutputHandler--><g id="link_OutputHandler_ConsoleOutputHandler"><path codeLine="83" d="M1665.62,286.07 C1666.56,304.64 1667.59,325.01 1668.42,341.31 " fill="none" id="OutputHandler-backto-ConsoleOutputHandler" style="stroke:#181818;stroke-width:1.0;"/><polygon fill="none" points="1658.61,286.14,1664.59,265.81,1672.59,285.43,1658.61,286.14" style="stroke:#181818;stroke-width:1.0;"/></g><!--link TypeCommand to CommandUtils--><g id="link_TypeCommand_CommandUtils"><path codeLine="99" d="M1516.96,702 C1477.66,735.82 1424.89,781.23 1386.85,813.96 " fill="none" id="TypeCommand-to-CommandUtils" style="stroke:#181818;stroke-width:1.0;stroke-dasharray:7.0,7.0;"/><polygon fill="#181818" points="1382.75,817.49,1392.1865,814.6699,1386.5463,814.236,1386.9801,808.5959,1382.75,817.49" style="stroke:#181818;stroke-width:1.0;"/><text fill="#000000" font-family="sans-serif" font-size="13" lengthAdjust="spacing" textLength="30" x="1470" y="752.7686">Uses</text></g><!--link ExternalCommand to CommandUtils--><g id="link_ExternalCommand_CommandUtils"><path codeLine="100" d="M1218.95,702 C1244.88,735.55 1279.63,780.49 1304.89,813.17 " fill="none" id="ExternalCommand-to-CommandUtils" style="stroke:#181818;stroke-width:1.0;stroke-dasharray:7.0,7.0;"/><polygon fill="#181818" points="1308.23,817.49,1305.8931,807.9224,1305.1732,813.5333,1299.5623,812.8133,1308.23,817.49" style="stroke:#181818;stroke-width:1.0;"/><text fill="#000000" font-family="sans-serif" font-size="13" lengthAdjust="spacing" textLength="30" x="1262" y="752.7686">Uses</text></g><!--link CdCommand to ShellContext--><g id="link_CdCommand_ShellContext"><path codeLine="102" d="M2005.23,710.02 C2023.91,732.06 2045.77,757.84 2065.88,781.56 " fill="none" id="CdCommand-to-ShellContext" style="stroke:#181818;stroke-width:1.0;stroke-dasharray:7.0,7.0;"/><polygon fill="#181818" points="2069.35,785.65,2066.5885,776.1962,2066.1196,781.8336,2060.4823,781.3648,2069.35,785.65" style="stroke:#181818;stroke-width:1.0;"/><text fill="#000000" font-family="sans-serif" font-size="13" lengthAdjust="spacing" textLength="30" x="2045" y="752.7686">Uses</text></g><!--link PwdCommand to ShellContext--><g id="link_PwdCommand_ShellContext"><path codeLine="103" d="M2260.34,702 C2240.12,725.71 2215.05,755.11 2192.24,781.84 " fill="none" id="PwdCommand-to-ShellContext" style="stroke:#181818;stroke-width:1.0;stroke-dasharray:7.0,7.0;"/><polygon fill="#181818" points="2188.9,785.77,2197.7849,781.5206,2192.1457,781.9667,2191.6996,776.3274,2188.9,785.77" style="stroke:#181818;stroke-width:1.0;"/><text fill="#000000" font-family="sans-serif" font-size="13" lengthAdjust="spacing" textLength="30" x="2225" y="752.7686">Uses</text></g><!--link Main to CommandProcessor--><g id="link_Main_CommandProcessor"><path codeLine="105" d="M1353.25,133.21 C1325.38,152.53 1295.34,173.35 1270.01,190.9 " fill="none" id="Main-to-CommandProcessor" style="stroke:#181818;stroke-width:1.0;"/><polygon fill="#181818" points="1265.66,193.92,1275.3382,192.0946,1269.7735,191.0777,1270.7905,185.513,1265.66,193.92" style="stroke:#181818;stroke-width:1.0;"/></g><!--link CommandProcessor to CommandFactory--><g id="link_CommandProcessor_CommandFactory"><path codeLine="106" d="M1202.41,273.31 C1199.01,290.65 1195,311.16 1191.51,329.02 " fill="none" id="CommandProcessor-to-CommandFactory" style="stroke:#181818;stroke-width:1.0;"/><polygon fill="#181818" points="1190.54,333.98,1196.1912,325.9138,1191.4986,329.0727,1188.3396,324.3801,1190.54,333.98" style="stroke:#181818;stroke-width:1.0;"/></g><!--link CommandFactory to Command--><g id="link_CommandFactory_Command"><path codeLine="107" d="M1183,413.3 C1183,430.87 1183,451.51 1183,468.76 " fill="none" id="CommandFactory-to-Command" style="stroke:#181818;stroke-width:1.0;"/><polygon fill="#181818" points="1183,474,1187,465,1183,469,1179,465,1183,474" style="stroke:#181818;stroke-width:1.0;"/></g><!--link Main to InputHandler--><g id="link_Main_InputHandler"><path codeLine="108" d="M1443,133.44 C1443,154.7 1443,177.74 1443,196.25 " fill="none" id="Main-to-InputHandler" style="stroke:#181818;stroke-width:1.0;"/><polygon fill="#181818" points="1443,201.34,1447,192.34,1443,196.34,1439,192.34,1443,201.34" style="stroke:#181818;stroke-width:1.0;"/></g><!--link Main to OutputHandler--><g id="link_Main_OutputHandler"><path codeLine="109" d="M1527.74,133.21 C1557.96,155.39 1590.87,179.55 1616.66,198.48 " fill="none" id="Main-to-OutputHandler" style="stroke:#181818;stroke-width:1.0;"/><polygon fill="#181818" points="1620.73,201.47,1615.8418,192.9199,1616.6993,198.5113,1611.1079,199.3689,1620.73,201.47" style="stroke:#181818;stroke-width:1.0;"/></g><!--reverse link Command to ArgumentCommand--><g id="link_Command_ArgumentCommand"><path codeLine="112" d="M1100.39,510.34 C947.06,517.78 608.68,539.94 330,599 C301.95,604.94 271.98,613.71 245.13,622.48 " fill="none" id="Command-backto-ArgumentCommand" style="stroke:#181818;stroke-width:1.0;"/><polygon fill="none" points="1100.47,503.33,1120.77,509.39,1101.12,517.32,1100.47,503.33" style="stroke:#181818;stroke-width:1.0;"/></g><!--reverse link Command to EchoCommand--><g id="link_Command_EchoCommand"><path codeLine="113" d="M1101.08,518.3 C999.39,533.11 821.04,561.64 671,599 C661.23,601.43 651.19,604.13 641.13,606.98 " fill="none" id="Command-backto-EchoCommand" style="stroke:#181818;stroke-width:1.0;"/><polygon fill="none" points="1100.17,511.36,1120.97,515.44,1102.17,525.21,1100.17,511.36" style="stroke:#181818;stroke-width:1.0;"/></g><!--reverse link Command to ExitCommand--><g id="link_Command_ExitCommand"><path codeLine="114" d="M1102.35,541.65 C1051.06,563.68 984.59,592.24 931.65,614.98 " fill="none" id="Command-backto-ExitCommand" style="stroke:#181818;stroke-width:1.0;"/><polygon fill="none" points="1099.71,535.16,1120.85,533.7,1105.24,548.03,1099.71,535.16" style="stroke:#181818;stroke-width:1.0;"/></g><!--reverse link Command to ExternalCommand--><g id="link_Command_ExternalCommand"><path codeLine="115" d="M1183,558.09 C1183,573.95 1183,591.34 1183,606.88 " fill="none" id="Command-backto-ExternalCommand" style="stroke:#181818;stroke-width:1.0;"/><polygon fill="none" points="1176,558.07,1183,538.07,1190,558.07,1176,558.07" style="stroke:#181818;stroke-width:1.0;"/></g><!--reverse link Command to TypeCommand--><g id="link_Command_TypeCommand"><path codeLine="116" d="M1264.08,537.61 C1317.22,557.68 1387.69,584.29 1447.71,606.95 " fill="none" id="Command-backto-TypeCommand" style="stroke:#181818;stroke-width:1.0;"/><polygon fill="none" points="1261.58,544.15,1245.34,530.54,1266.52,531.05,1261.58,544.15" style="stroke:#181818;stroke-width:1.0;"/></g><!--reverse link Command to CdCommand--><g id="link_Command_CdCommand"><path codeLine="117" d="M1264.94,515.31 C1381.98,528.12 1603.31,555.81 1788,599 C1793.92,600.38 1799.92,601.87 1805.97,603.44 " fill="none" id="Command-backto-CdCommand" style="stroke:#181818;stroke-width:1.0;"/><polygon fill="none" points="1264.15,522.27,1245.01,513.16,1265.65,508.35,1264.15,522.27" style="stroke:#181818;stroke-width:1.0;"/></g><!--reverse link Command to PwdCommand--><g id="link_Command_PwdCommand"><path codeLine="118" d="M1265.17,509.1 C1430.54,514.61 1814.68,533.92 2130,599 C2140.93,601.26 2152.14,603.95 2163.35,606.93 " fill="none" id="Command-backto-PwdCommand" style="stroke:#181818;stroke-width:1.0;"/><polygon fill="none" points="1264.94,516.09,1245.17,508.46,1265.38,502.1,1264.94,516.09" style="stroke:#181818;stroke-width:1.0;"/></g><!--SRC=[jLRRRjim37ttL-ZHGUTYpqPWeCWwBC261Klx0OhDEi8SEP3ejjdMVnzjIzObIR5kMLzQauU7XnH5LNyNSiyLtx6ouLhV82gnwH2MPIlNuWUmzqaoUDWNBYJxcJ3woTYYtUsuh5QgBK7hLh4oCXWSF0iqs9ojYLlMnaDfE_n4zWPKpfRUbm6q7Vg8h_xd0BbY6hd2T9QpnrPKoOjLUYGkKlsHbzYgWzLiFWtdVenA1trMysmIJqc4H50Fl0JBP_Ylg5eegNVf6VYDghiTI8p3dWHkhK-dtFxb9JSHhiJRSjk6D1dRaMnUGz3djv2_KeD9wWxpBxJ_0JqrIl8chclJYQOonZxkiz0u7uEBowkuE-mXBjApfMPela5DCjGXftknDshUsIp5xFAw5bMiQk6QSh5qOySLwBPvX1N7RU_hVpiXgwSZ9SwK_e_Amrjhn-9KtrbqEeQyLC1nEi7uPdkNozrLVo5DTH9DDJXEovJKDNXBO82T_ygoKoI-gc09JknxuiFHbOvRqwikNeq3_p_mXA6-w713XuTtZwBH9j5yJdiRHLaKbFD1I3ixIsa7pXl605m3tWvpmZSDzEj2Qa6vZvR2Yqc-ta93wuJQzupJt8nyeKz8iieI3CJtJHDzAeu4BKteXEiRnJJWebEAHlw3K30CRZggOnL7Rh76L9z0p_fc1ydoC1qD5NPAQePRO9fe6hXhfIibyJVPzNKH7aNExZNe9Dwvvt29Mpyz9D8rGBozS0wI3Fz3P5bnz4GdHs-sXx8FTBG8F8GZ3cxEP8r6qpADunizow7JUsWZXtiCOqVGqj3fdKdecFeRcbrJVmC0]--></g></svg>